<svg width="232" height="34" viewBox="0 0 232 34" fill="none" xmlns="http://www.w3.org/2000/svg">
<path d="M168.138 22.5302V24.2506C168.138 26.5855 167.312 28.388 165.497 29.3711C163.845 30.2723 161.574 30.7229 158.726 30.7229C156.455 30.7229 154.144 30.5591 151.873 30.2313L151.172 30.1494V29.4531V26.6265V25.6844L152.121 25.8482C155.34 26.3807 157.57 26.6265 158.809 26.6265C160.418 26.6265 161.492 26.4627 162.153 26.2169C162.442 26.094 162.565 26.0531 162.647 25.8073C162.772 25.6024 162.854 25.3976 162.812 25.0289V22.9398C162.812 22.2844 162.607 21.9976 162.358 21.8338C161.988 21.588 161.285 21.4242 160.047 21.4242H157.818C155.671 21.4242 153.897 20.9735 152.617 19.9494C151.337 18.9253 150.718 17.4916 150.718 15.7711V13.9277C150.718 12.0434 151.626 10.6096 153.36 9.70839C155.011 8.84819 157.364 8.43855 160.336 8.43855C160.997 8.43855 163.019 8.56145 166.363 8.76621L167.147 8.80726V9.58548V12.2482V13.2313L166.198 13.0675C164.217 12.6988 162.235 12.5349 160.212 12.494C158.272 12.494 157.157 12.6987 156.662 12.9446C156.29 13.1494 156.043 13.4771 156.043 14.1735V15.8531C156.043 16.2217 156.166 16.4675 156.538 16.6313C156.951 16.8771 157.694 17.0409 158.849 17.0409H160.294H161.12C163.267 17.0409 165.042 17.4506 166.281 18.3927C167.519 19.3349 168.138 20.7687 168.138 22.5302ZM142.048 1.63855H141.222V2.86746V29.494V30.3133H142.048H145.722H146.548V29.494V2.86746V1.63855H145.722H142.048ZM190.471 16.0169V20.4V21.3013H189.646H177.261V23.3904C177.261 24.5783 177.674 25.2747 178.335 25.6434C179.119 26.1349 180.399 26.4216 182.256 26.4216C184.073 26.4216 186.177 26.094 188.655 25.4795L189.686 25.2338V26.2987V29.0844V29.7398L189.026 29.9036C186.633 30.4362 184.155 30.7229 181.719 30.7638C178.624 30.7638 176.188 30.2723 174.496 29.1253C172.72 27.9373 171.894 26.1349 171.894 23.882V16.0169C171.894 13.4362 172.638 11.4289 174.289 10.1591C175.899 8.97109 178.335 8.43855 181.43 8.43855C184.32 8.43855 186.633 8.93016 188.16 10.118C189.77 11.306 190.471 13.3951 190.471 16.0169ZM185.146 14.8698C185.146 13.8458 184.816 13.3133 184.444 13.1084C183.908 12.7807 182.917 12.5758 181.225 12.5758C179.655 12.5758 178.624 12.7807 178.005 13.1084C177.591 13.3542 177.261 13.8458 177.261 14.9109V17.2458H185.146V14.8698ZM132.224 8.84819H131.398V9.66746V24.6193C131.398 25.3976 131.151 25.7662 130.697 25.9711C130.076 26.2578 128.88 26.4627 126.816 26.4627C126.113 26.4627 125.454 26.4217 124.752 26.2169C124.38 26.1349 124.174 26.012 123.926 25.7253C123.761 25.5205 123.637 25.3156 123.554 25.0289C123.472 24.6602 123.43 24.3735 123.472 24.0048V9.66746V8.84819H122.646H118.972H118.146V9.66746V24.2096C118.146 26.2578 118.683 27.9373 119.881 29.0844C121.119 30.2723 123.183 30.7229 125.825 30.7229C127.847 30.7229 129.499 30.4771 130.737 29.9446C130.985 29.8216 131.233 29.6987 131.481 29.5349V30.3133H132.306H135.98H136.806V29.494V9.66746V8.84819H135.98H132.224ZM227.665 15.7711C226.015 15.7711 224.57 16.6723 223.867 18.0242H219.038L216.891 0H212.433L206.199 23.9229L204.59 17.2049H195.094V21.3013H200.874L203.888 34H208.181L213.754 12.9855L214.951 21.4242L215.075 22.1205H223.867C224.611 23.4723 226.015 24.3735 227.665 24.3735C230.06 24.3735 232 22.4482 232 20.0723C232 17.6964 230.06 15.7711 227.665 15.7711ZM113.275 5.40726C113.689 6.22653 113.936 8.15181 113.936 8.15181V13.682C113.936 16.1807 112.945 18.106 110.881 19.212C108.94 20.2362 106.34 20.7277 103.079 20.7277H99.9V29.494V30.3133H99.0754H95.1112H94.2866V29.494V2.90839V2.08911H95.1112H103.739C104.854 2.08911 105.803 2.13016 106.588 2.17109C107.455 2.25307 108.363 2.37584 109.189 2.58073C110.015 2.74456 110.881 3.11327 111.583 3.56383C112.284 4.05544 112.863 4.71089 113.275 5.40726ZM108.405 8.60238C108.446 8.11089 108.321 7.70125 108.033 7.33254C107.702 6.9229 107.372 6.71802 106.876 6.63617C106.34 6.47234 105.803 6.39036 105.267 6.30838C104.812 6.26746 104.276 6.26746 103.574 6.26746H99.9832V16.6313H103.657C105.143 16.6313 106.257 16.3855 107.29 15.8531C108.074 15.4434 108.486 14.7469 108.486 13.518L108.405 8.60238ZM12.2604 13.4362H9.08179C7.43056 13.4362 6.52248 13.2313 6.06832 12.9446C5.69674 12.6987 5.4491 12.3302 5.4491 11.5927V8.56145C5.4491 7.57835 5.77932 7.00488 6.31607 6.71802C6.60494 6.55419 7.10033 6.39036 7.88472 6.26746C8.66898 6.14456 9.65977 6.10363 10.8982 6.10363C12.5494 6.10363 14.8612 6.34944 17.8335 6.8L18.7829 6.96383V6.02165V2.94944V2.21201L18.0399 2.13016C15.7694 1.84343 13.4576 1.67947 11.146 1.67947C7.18292 1.67947 4.2519 2.17109 2.51821 3.35907C0.825617 4.54693 0 6.34944 0 8.68436V10.8145C0 13.0265 0.536627 14.8698 1.77505 16.1398C3.05484 17.4506 5.20146 18.0242 7.92595 18.0242H11.022C12.6733 18.0242 13.5402 18.2698 13.953 18.5566C14.3246 18.8024 14.5722 19.3349 14.5722 20.318V23.7591C14.5722 24.2916 14.4897 24.6193 14.3246 24.9469C14.1594 25.2747 13.9943 25.3976 13.5815 25.5615C12.7558 25.9302 11.4348 26.1349 9.61855 26.1349C7.3481 26.1349 4.66471 25.8073 1.48606 25.1109L0.495396 24.906V25.9302V29.2482V29.9446L1.23843 30.0675C3.92168 30.4771 6.68753 30.682 9.41214 30.7229C12.8384 30.7229 15.563 30.1904 17.3381 28.9614C19.2783 27.6506 20.1039 25.3976 20.1039 22.4073V20.482C20.1039 18.2289 19.6085 16.3855 18.4113 15.1976C17.1729 13.9277 15.0263 13.4362 12.2604 13.4362ZM88.5067 1.63855H89.3324V2.86746V29.494V30.3133H88.5067H84.9153H84.0897V29.494C83.8833 29.6169 83.7182 29.6987 83.5118 29.8217C82.1908 30.4362 80.4156 30.7229 78.3516 30.7229C75.4619 30.7229 73.2327 30.2723 71.8292 29.2073C70.343 28.0602 69.7652 26.094 69.7652 23.5951V14.8698C69.7652 12.6987 70.4256 10.9783 71.953 9.91327C73.3979 8.88911 75.6683 8.43855 78.558 8.43855C80.0854 8.43855 81.654 8.64343 83.099 9.09399C83.4292 9.2169 83.7594 9.3398 84.0897 9.50363C84.0897 8.39762 84.0484 7.45544 84.0484 6.8V2.86746V1.63855H84.8741H87.7225H88.5067ZM84.0484 14.5013C84.0484 13.9687 83.8007 13.5591 83.1402 13.2313C82.3972 12.8627 81.2 12.6578 79.4662 12.6578C78.3929 12.6578 77.5673 12.6987 76.8655 12.7807C76.1637 12.8627 75.7921 12.9855 75.5857 13.0675C75.3381 13.1904 75.0491 13.518 75.0491 14.5013V24.2916C75.0491 25.2338 75.3381 25.6844 75.7921 25.9711C76.3289 26.2987 77.4021 26.5446 79.136 26.5446C81.1174 26.5446 82.3972 26.2987 83.1402 25.9302C83.7594 25.6434 84.0484 25.1518 84.0484 24.2916V14.5013ZM42.6847 16.0169V20.4V21.3013H41.8591H29.4747V23.3904C29.4747 24.5783 29.8875 25.2747 30.5481 25.6434C31.3324 26.1349 32.6121 26.4216 34.4698 26.4216C36.2861 26.4216 38.3915 26.094 40.8683 25.4795L41.9003 25.2338V26.2987V29.0844V29.7398L41.2399 29.9036C38.8455 30.4362 36.3686 30.7229 33.9332 30.7638C30.8783 30.7638 28.4015 30.2723 26.7089 29.1253C24.9338 27.9373 24.1082 26.1349 24.1082 23.882V16.0169C24.1082 13.4362 24.8512 11.4289 26.5025 10.1591C28.1125 8.97109 30.5481 8.43855 33.6442 8.43855C36.5338 8.43855 38.8455 8.93016 40.3729 10.118C42.0242 11.306 42.6847 13.3951 42.6847 16.0169ZM37.4007 17.2049L37.3594 14.8698C37.3594 13.8458 37.0292 13.3133 36.6576 13.1084C36.121 12.7807 35.1302 12.5758 33.4378 12.5758C31.869 12.5758 30.837 12.7807 30.2178 13.1084C29.8049 13.3542 29.4747 13.8458 29.4747 14.9109L29.5161 17.2458H37.4007V17.2049ZM58 8.43855C55.9772 8.43855 54.326 8.68435 53.0875 9.2169C52.8399 9.3398 52.5921 9.4627 52.3445 9.62653V8.84819H51.5189H47.8861H47.0604V9.66746V29.494V30.3133H47.8861H51.5601H52.3857V29.494V15.1566C52.3857 14.0506 52.7161 13.518 53.0875 13.2723C53.5829 12.9446 54.7801 12.6987 56.968 12.6987C57.6698 12.6987 58.3302 12.7398 59.032 12.9446C59.4036 13.0265 59.61 13.1494 59.8576 13.4362C60.0228 13.6409 60.1466 13.8458 60.1879 14.1325C60.2705 14.5013 60.3118 14.788 60.2704 15.1566V29.494V30.3133H61.0961H64.7701H65.5957V29.494V14.9518C65.5957 12.9036 65.0591 11.2242 63.9033 10.0771C62.7061 8.88911 60.642 8.43855 58 8.43855Z" fill="white"/>
</svg>
