<svg width="221" height="34" viewBox="0 0 221 34" fill="none" xmlns="http://www.w3.org/2000/svg">
<g clip-path="url(#clip0_24077_1614)">
<path d="M29.3493 0H4.89155C2.19002 0 0 2.17462 0 4.85714V29.1429C0 31.8254 2.19002 34 4.89155 34H29.3493C32.0508 34 34.2408 31.8254 34.2408 29.1429V4.85714C34.2408 2.17462 32.0508 0 29.3493 0Z" fill="#262626"/>
<path opacity="0.8" d="M17.0568 21.4997L7.92188 14.5346V5.46387L17.0568 12.429V21.4997Z" fill="white"/>
<path opacity="0.45" d="M26.8086 28.5358L19.4102 22.6635V13.5928L26.8086 19.4651V28.5358Z" fill="white"/>
<path opacity="0.65" d="M17.0566 21.4997L26.1916 14.5346V5.46387L17.0566 12.429V21.4997Z" fill="white"/>
<path opacity="0.6" d="M7.92188 28.4553L17.0568 21.4926V12.4219L7.92188 19.387V28.4553Z" fill="white"/>
<path opacity="0.4" d="M19.793 19.4114L23.5326 16.5603L19.8639 13.6436L19.793 19.4114Z" fill="white"/>
<path opacity="0.2" d="M17.0566 17.8332L26.1916 10.8681V9.83594L17.0566 16.7987V17.8332Z" fill="white"/>
<path d="M17.0565 21.5004L11.1035 16.9614L17.0565 12.4297V21.5004Z" fill="white"/>
<path opacity="0.4" d="M7.92188 24.818L17.0568 17.8528V16.7988L7.92188 23.764V24.818Z" fill="white"/>
<path d="M49.7675 26.2819L47.8476 30.9958H42.1562L52.7685 6.72949H58.4549L68.8934 30.9958H62.9967L61.0767 26.2819H49.7675ZM55.4564 12.4512L51.5823 21.8789H59.2962L55.4564 12.4512Z" fill="white"/>
<path d="M89.0399 30.9954H83.6983V28.256C82.3702 30.1624 80.3451 31.2043 77.7624 31.2043C72.4208 31.2043 68.8965 27.355 68.8965 21.6017C68.8965 15.9164 72.3866 12.1303 77.623 12.1303C80.2767 12.1303 82.336 13.1697 83.6983 15.0761V5.27441H89.0399V30.9954ZM82.539 21.7401C82.539 18.6898 80.6191 16.5746 77.8602 16.5746C75.1014 16.5746 73.1472 18.7238 73.113 21.7401C73.1472 24.7904 75.0329 26.9057 77.8602 26.9057C80.6191 26.9057 82.539 24.7904 82.539 21.7401Z" fill="white"/>
<path d="M108.103 14.1829L106.252 17.8258C104.19 16.6795 102.096 16.0286 100.521 16.0286C99.2641 16.0286 98.3567 16.4439 98.3567 17.4153C98.3567 20.2228 108.269 18.802 108.235 25.3883C108.235 29.2012 104.85 31.2169 100.59 31.2169C97.5521 31.2169 94.5853 30.3159 92.4551 28.6159L94.2014 25.0119C96.158 26.5006 98.6698 27.3336 100.729 27.3336C102.091 27.3336 103.104 26.8819 103.104 25.8765C103.104 22.8966 93.3625 24.4922 93.3625 17.9399C93.3625 14.0906 96.6789 12.1113 100.763 12.1113C103.356 12.1143 105.897 12.8314 108.103 14.1829Z" fill="white"/>
<path d="M122.309 6.72949C128.524 6.72949 132.092 9.77978 132.092 15.1542C132.092 20.8055 128.531 24.0622 122.309 24.0622H117.457V30.9958H111.941V6.72949H122.309ZM117.457 19.4868H122.03C125.102 19.4868 126.848 18.1001 126.848 15.3266C126.848 12.6236 125.102 11.2709 122.03 11.2709H117.457V19.4868Z" fill="white"/>
<path d="M154.042 21.67C154.042 27.3553 149.992 31.2046 143.987 31.2046C137.983 31.2046 133.898 27.3553 133.898 21.67C133.898 15.9847 137.941 12.1719 143.987 12.1719C150.033 12.1719 154.042 15.9507 154.042 21.67ZM139.309 21.7404C139.309 24.7907 141.194 26.8696 143.987 26.8696C146.78 26.8696 148.666 24.7907 148.666 21.7404C148.666 18.6902 146.746 16.6089 143.987 16.6089C141.228 16.6089 139.309 18.6999 139.309 21.7404Z" fill="white"/>
<path d="M174.604 30.9957L170.554 18.6998L166.54 31.0054H161.177L154.287 12.3856L159.768 12.3516L163.958 25.7087L168.005 12.3637H173.279L177.397 25.7208L181.516 12.3758H186.823L179.975 31.0248L174.604 30.9957Z" fill="white"/>
<path d="M205.849 23.3H192.373C193.002 25.6582 194.819 27.0449 197.225 27.0449C198.11 27.0447 198.985 26.8698 199.8 26.5304C200.616 26.191 201.355 25.6939 201.975 25.068L204.802 27.9119C202.917 29.9908 200.155 31.205 196.773 31.205C190.769 31.205 186.963 27.3922 186.963 21.7336C186.963 15.9779 190.908 12.165 196.633 12.165C203.244 12.1723 206.304 16.5146 205.849 23.3ZM200.823 20.1575C200.752 17.6973 199.145 16.1018 196.665 16.1018C194.29 16.1018 192.686 17.6973 192.263 20.1575H200.823Z" fill="white"/>
<path d="M214.785 15.7077C216.076 13.42 218.209 12.1717 221 12.1377V17.1648C217.157 16.8176 214.785 18.8648 214.785 22.022V31.0077H209.404V12.3466H214.785V15.7077Z" fill="white"/>
</g>
<defs>
<clipPath id="clip0_24077_1614">
<rect width="221" height="34" fill="white"/>
</clipPath>
</defs>
</svg>
