<svg width="179" height="58" viewBox="0 0 179 58" fill="none" xmlns="http://www.w3.org/2000/svg">
<g clip-path="url(#clip0_24223_6069)">
<mask id="mask0_24223_6069" style="mask-type:luminance" maskUnits="userSpaceOnUse" x="16" y="12" width="147" height="34">
<path d="M162.763 12H16.3535V46H162.763V12Z" fill="white"/>
</mask>
<g mask="url(#mask0_24223_6069)">
<path d="M16.9473 21.9097V35.219C16.9473 37.1961 16.9473 38.1846 17.1152 39.006C17.7866 42.2912 20.3729 44.8586 23.6819 45.5253C24.5094 45.692 25.505 45.692 27.4965 45.692H30.9216H39.6556H39.804C42.7859 45.692 44.2769 45.692 45.477 45.2805C47.6737 44.5273 49.4 42.8136 50.1586 40.6328C50.573 39.4414 50.573 37.9613 50.573 35.001V21.9097C50.573 20.7445 50.573 20.1619 50.5145 19.6721C50.0569 15.8419 47.015 12.822 43.1568 12.3677C42.6634 12.3096 42.0766 12.3096 40.9028 12.3096H39.6556H26.5547C23.674 12.3096 22.2336 12.3096 21.0894 12.7538C19.3963 13.4112 18.0569 14.7409 17.3948 16.4217C16.9473 17.5577 16.9473 19.0083 16.9473 21.9097Z" fill="#E1E1E1"/>
<path d="M40.9067 13.1436H24.0939C20.6118 13.1436 17.7891 15.9459 17.7891 19.4028V36.094C17.7891 39.5508 20.6118 42.3531 24.0939 42.3531H40.9067C44.3888 42.3531 47.2116 39.5508 47.2116 36.094V19.4028C47.2116 15.9459 44.3888 13.1436 40.9067 13.1436Z" fill="white"/>
<path d="M30.4734 38.4608C32.6757 38.4608 34.102 37.5072 34.8297 36.1299H34.946V38.1815H38.8657V28.2029C38.8657 24.6777 35.858 23.1943 32.5399 23.1943C28.9696 23.1943 26.6218 24.8896 26.0493 27.5865L29.8719 27.8947C30.1532 26.9122 31.0361 26.1899 32.5206 26.1899C33.9273 26.1899 34.7325 26.8929 34.7325 28.1066V28.1644C34.7325 29.1179 33.7139 29.2432 31.1234 29.4935C28.1741 29.7633 25.5254 30.7457 25.5254 34.0494C25.5254 36.9775 27.6307 38.4608 30.4734 38.4608ZM31.6571 35.629C30.3861 35.629 29.4741 35.0415 29.4741 33.9145C29.4741 32.7588 30.4346 32.1905 31.8899 31.9883C32.7921 31.863 34.2669 31.6511 34.7617 31.3236V32.8936C34.7617 34.4443 33.4714 35.629 31.6571 35.629Z" fill="black"/>
<path d="M53.8984 21.9097V35.219C53.8984 37.1961 53.8984 38.1846 54.0663 39.006C54.7378 42.2911 57.324 44.8586 60.6331 45.5253C61.4606 45.692 62.4563 45.692 64.4476 45.692H67.8728H76.6065H76.7553C79.7372 45.692 81.2279 45.692 82.4281 45.2805C84.6248 44.5273 86.351 42.8136 87.1096 40.6328C87.5241 39.4414 87.5241 37.9613 87.5241 35.0008V21.9097C87.5241 20.7445 87.5241 20.1619 87.4656 19.6721C87.0081 15.8419 83.966 12.822 80.108 12.3677C79.6144 12.3096 79.0276 12.3096 77.8539 12.3096H76.6065H63.5058C60.6251 12.3096 59.1848 12.3096 58.0405 12.7538C56.3475 13.4112 55.0081 14.7409 54.3459 16.4217C53.8984 17.5577 53.8984 19.0083 53.8984 21.9097Z" fill="#E1E1E1"/>
<path d="M77.8559 13.1436H61.0432C57.5611 13.1436 54.7383 15.9459 54.7383 19.4028V36.094C54.7383 39.5508 57.5611 42.3531 61.0432 42.3531H77.8559C81.3378 42.3531 84.161 39.5508 84.161 36.094V19.4028C84.161 15.9459 81.3378 13.1436 77.8559 13.1436Z" fill="white"/>
<path d="M69.938 38.4697C73.6247 38.4697 76.1086 36.6878 76.6907 33.9428L72.8679 33.6924C72.4508 34.8193 71.3835 35.4068 70.0059 35.4068C67.9393 35.4068 66.6296 34.0486 66.6296 31.843V31.8334H76.7781V30.7064C76.7781 25.6786 73.7121 23.1937 69.773 23.1937C65.3877 23.1937 62.5449 26.2854 62.5449 30.8509C62.5449 35.5416 65.3489 38.4697 69.938 38.4697ZM66.6296 29.2905C66.7168 27.605 68.0073 26.2565 69.8409 26.2565C71.6358 26.2565 72.8777 27.528 72.8873 29.2905H66.6296ZM68.1916 21.4792H71.1119L74.0711 17.0967H70.2484L68.1916 21.4792Z" fill="black"/>
<path d="M91.4609 21.9097V35.219C91.4609 37.1961 91.4609 38.1846 91.6286 39.006C92.3004 42.2911 94.8862 44.8586 98.1958 45.5253C99.0229 45.692 100.019 45.692 102.01 45.692H105.435H114.169H114.317C117.299 45.692 118.79 45.692 119.99 45.2805C122.187 44.5273 123.914 42.8136 124.672 40.6328C125.087 39.4414 125.087 37.9613 125.087 35.0008V21.9097C125.087 20.7445 125.087 20.1619 125.028 19.6721C124.57 15.8419 121.528 12.822 117.67 12.3677C117.177 12.3096 116.59 12.3096 115.417 12.3096H114.169H101.068C98.1875 12.3096 96.747 12.3096 95.6029 12.7538C93.9098 13.4112 92.5702 14.7409 91.9084 16.4217C91.4609 17.5577 91.4609 19.0083 91.4609 21.9097Z" fill="#E1E1E1"/>
<path d="M115.419 13.1445H98.6053C95.1233 13.1445 92.3008 15.9469 92.3008 19.4038V36.0949C92.3008 39.5518 95.1233 42.3541 98.6053 42.3541H115.419C118.9 42.3541 121.723 39.5518 121.723 36.0949V19.4038C121.723 15.9469 118.9 13.1445 115.419 13.1445Z" fill="white"/>
<path d="M100.805 38.2125H113.371V34.9271H106.246V34.8207L113.118 26.0468V23.3701H101.058V26.6556H108.125V26.7619L100.805 35.758V38.2125Z" fill="black"/>
<path d="M128.863 21.9097V35.219C128.863 37.1961 128.863 38.1846 129.031 39.006C129.703 42.2912 132.289 44.8586 135.598 45.5253C136.425 45.692 137.421 45.692 139.412 45.692H142.838H151.572H151.72C154.703 45.692 156.193 45.692 157.394 45.2805C159.59 44.5273 161.317 42.8136 162.075 40.6328C162.49 39.4414 162.49 37.9613 162.49 35.001V21.9097C162.49 20.7445 162.49 20.1619 162.431 19.6721C161.973 15.8419 158.932 12.822 155.074 12.3677C154.58 12.3096 153.993 12.3096 152.819 12.3096H151.572H138.471C135.59 12.3096 134.149 12.3096 133.006 12.7538C131.313 13.4112 129.973 14.7409 129.311 16.4217C128.863 17.5577 128.863 19.0083 128.863 21.9097Z" fill="#E1E1E1"/>
<path d="M152.822 13.1436H136.009C132.528 13.1436 129.705 15.9459 129.705 19.4028V36.094C129.705 39.5508 132.528 42.3531 136.009 42.3531H152.822C156.304 42.3531 159.128 39.5508 159.128 36.094V19.4028C159.128 15.9459 156.304 13.1436 152.822 13.1436Z" fill="white"/>
<path d="M142.391 38.4608C144.594 38.4608 146.02 37.5072 146.748 36.1299H146.864V38.1815H150.784V28.2029C150.784 24.6777 147.776 23.1943 144.457 23.1943C140.887 23.1943 138.54 24.8896 137.968 27.5865L141.79 27.8947C142.071 26.9122 142.954 26.1899 144.439 26.1899C145.845 26.1899 146.65 26.8929 146.65 28.1066V28.1644C146.65 29.1179 145.632 29.2432 143.041 29.4935C140.092 29.7633 137.443 30.7457 137.443 34.0494C137.443 36.9775 139.549 38.4608 142.391 38.4608ZM143.575 35.629C142.304 35.629 141.392 35.0415 141.392 33.9145C141.392 32.7588 142.353 32.1905 143.807 31.9883C144.71 31.863 146.184 31.6511 146.68 31.3236V32.8936C146.68 34.4443 145.389 35.629 143.575 35.629Z" fill="black"/>
</g>
</g>
<defs>
<clipPath id="clip0_24223_6069">
<rect width="147" height="34" fill="white" transform="translate(16 12)"/>
</clipPath>
</defs>
</svg>
